The Big Bang Theory - S06E01 - The Date Night Variable - 720p WEB-DL H.264 {$H@uN}


General Info:

Complete name                  : The Big Bang Theory - S06E01 - The Date Night Variable - 720p WEB-DL H.264 {$H@uN}
Original air date              : September 27 2012
Genre                          : Comedy
Language                       : English
Encoder                        : $H@uN
File format                    : Matroska
File size                      : 211 MiB
Duration                       : 21mn 7s
Overall bit rate               : 1 397 Kbps


Video:

Format                         : AVC
Duration                       : 21mn 7s
Bit rate                       : 1 200 Kbps
Width                          : 1 280 pixels
Height                         : 720 pixels
Display aspect ratio           : 16:9
Frame rate mode                : Variable
Frame rate                     : 23.976 fps
Color space                    : YUV
Chroma subsampling             : 4:2:0
Bit depth                      : 8 bits
Scan type                      : Progressive
Bits/(Pixel*Frame)             : 0.054
Stream size                    : 178 MiB (84%)
Writing library                : x264 core 120
Laguage                        : English
Subtitles                      : Seperate .srt file included


Audio:

Format                         : AC-3
Mode extension                 : CM (complete main)
Codec ID                       : A_AC3
Duration                       : 43mn 15s
Bit rate mode                  : Constant
Bit rate                       : 192 Kbps
Channel(s)                     : 6 channels
Channel positions              : Front: L C R, Side: L R, LFE
Sampling rate                  : 48.0 KHz
Bit depth                      : 16 bits
Compression mode               : Lossy
Stream size                    : 29.0 MiB (14%)
Language                       : English

Screen Shots:

i1140.photobucket.com/albums/n566/ShaunGP/12-13/TheBigBangTheory-S06E01-TheDateNightVariable-720pWEB-DLH264HuNmkv_snapshot_0236_20120929_130453.jpg

i1140.photobucket.com/albums/n566/ShaunGP/12-13/TheBigBangTheory-S06E01-TheDateNightVariable-720pWEB-DLH264HuNmkv_snapshot_0344_20120929_130614.jpg


Encoder's Notes:

Do Provide Feedback.
Keep in Mind, you are charged nothing for Downloading a TORRENT,
so its your duty to SEED n keep the torrent alive for as long as possible.
Enjoy..!!! Keep Seeding till 1:1 ratio...